<svg xmlns="http://www.w3.org/2000/svg" enable-background="new 0 0 28 28" viewBox="0 0 28 28" id="scribd"><path fill="#DEFF8F" d="M9.956,24.514C5.176,24.247,4.16,17.186,4.48,11.476c0.32-5.71,6.053-8.459,10.833-8.191s6.968,3.868,6.576,16.4C21.709,25.396,14.735,24.782,9.956,24.514z"></path><path d="M9.234,16c-0.081,0-0.162-0.002-0.243-0.006c-1.382-0.061-2.665-0.641-3.521-1.59c-0.968-1.048-1.464-2.496-1.47-4.3c0-4.847,3.833-8.103,9.538-8.103c5.193-0.07,8.455,2.286,10.012,3.423l0.243,0.177c0.109,0.079,0.182,0.198,0.202,0.332c0.02,0.134-0.015,0.27-0.097,0.376l-2.729,3.579c-0.154,0.203-0.438,0.257-0.656,0.125l-2.016-1.221c-0.122-0.073-0.206-0.195-0.232-0.334c-0.026-0.14,0.007-0.283,0.093-0.396l1.11-1.462c-1.79-0.968-3.818-1.473-5.899-1.429c-1.845-0.056-3.776,0.62-4.78,1.608C8.279,7.281,8.021,7.845,8.021,8.455c0,0.214,0.043,0.323,0.08,0.352c0.026,0.021,0.193,0.113,0.837-0.06c1.371-0.288,2.563-0.007,3.478,0.802c0.727,0.614,1.146,1.494,1.17,2.47c0.026,1.049-0.421,2.108-1.198,2.833C11.594,15.588,10.456,16,9.234,16z M13.786,3c-0.08,0-0.16,0.001-0.241,0.002C9.599,3.002,5,4.861,5,10.103c0.005,1.544,0.412,2.765,1.208,3.628c0.683,0.756,1.711,1.216,2.828,1.265c1.045,0.04,2.021-0.272,2.67-0.875c0.57-0.532,0.899-1.309,0.88-2.077c-0.017-0.686-0.31-1.303-0.824-1.737c-0.688-0.608-1.558-0.803-2.592-0.587C8.701,9.846,7.986,9.979,7.492,9.6C7.18,9.36,7.021,8.975,7.021,8.455c0-0.875,0.368-1.701,1.064-2.387c1.2-1.184,3.358-1.917,5.481-1.896c2.438-0.026,4.835,0.603,6.9,1.85c0.122,0.073,0.206,0.194,0.233,0.334c0.026,0.139-0.007,0.283-0.093,0.396l-1.119,1.474l1.157,0.7l2.147-2.815C21.2,4.953,18.362,3,13.786,3z"></path><path d="M14.63,26.009c-3.583,0-7.027-1.314-9.702-3.704L4.166,21.62c-0.201-0.181-0.222-0.488-0.048-0.694l3.006-3.557c0.173-0.204,0.475-0.235,0.687-0.074l1.761,1.356c0.108,0.084,0.178,0.208,0.192,0.345c0.015,0.136-0.028,0.272-0.117,0.376l-1.311,1.536c1.883,1.268,4.064,1.935,6.343,1.935c2.868-0.028,4.825-1.012,5.586-2.879c0.013-0.097,0.032-0.268,0.032-0.44c0-0.253-0.054-0.349-0.074-0.364c-0.006-0.004-0.135-0.095-0.699,0.071c-1.302,0.295-2.424,0.005-3.276-0.838c-0.708-0.646-1.098-1.588-1.057-2.57c-0.017-1.029,0.393-2.014,1.15-2.743c0.761-0.732,1.802-1.128,2.862-1.064c1.307-0.056,2.623,0.553,3.484,1.599c1.751,2.094,2.082,7.253-1.057,10.082c-1.865,1.603-4.003,2.313-6.94,2.313C14.67,26.009,14.65,26.009,14.63,26.009z M5.195,21.2l0.4,0.359c2.491,2.226,5.698,3.449,9.035,3.449c0.019,0,0.03-0.011,0.06,0c2.717,0,4.595-0.617,6.279-2.063c2.67-2.408,2.418-6.937,0.947-8.693c-0.666-0.812-1.683-1.273-2.724-1.238c-0.825-0.039-1.596,0.245-2.158,0.785c-0.557,0.536-0.856,1.259-0.845,2.036c-0.029,0.716,0.243,1.373,0.747,1.833c0.619,0.612,1.401,0.808,2.335,0.596c0.42-0.126,1.076-0.26,1.55,0.095c0.315,0.236,0.475,0.628,0.475,1.165c0,0.246-0.026,0.486-0.081,0.735c-0.95,2.352-3.296,3.584-6.537,3.584c-2.636,0-5.254-0.866-7.377-2.441c-0.111-0.082-0.184-0.207-0.199-0.345C7.088,20.919,7.13,20.78,7.22,20.676l1.325-1.553l-0.966-0.744L5.195,21.2z"></path></svg>